<?xml version="1.0" encoding="UTF-8"?>
<svg id="_レイヤー_2" data-name="レイヤー 2" xmlns="http://www.w3.org/2000/svg" viewBox="0 0 103.71 8.62">
  <defs>
    <style>
      .cls-1 {
        fill: #831d45;
      }
    </style>
  </defs>
  <g id="_レイヤー_1" data-name="レイヤー 1">
    <g>
      <path class="cls-1" d="M1.07.19h2.51c.51,0,.88-.01,1.11-.03s.46-.06.68-.13c.07-.02.12-.03.16-.03.17,0,.32.09.45.27.21.3.32.65.32,1.07,0,.21-.04.38-.13.5s-.21.18-.37.18c-.11,0-.19-.02-.25-.07s-.14-.14-.24-.3c-.14-.22-.32-.36-.54-.44s-.58-.11-1.08-.11c-.37,0-.6.07-.68.2-.04.07-.07.17-.08.29s-.01.43-.01.92c0,.2.03.32.1.36s.24.07.51.07c.14,0,.24-.03.3-.09s.1-.16.12-.31c.02-.19.05-.32.07-.39s.07-.13.13-.18c.07-.06.15-.09.24-.09.13,0,.25.06.34.19.07.09.13.26.17.5s.07.49.07.75c0,.51-.08.94-.24,1.26-.09.18-.22.27-.4.27-.11,0-.19-.03-.23-.09s-.07-.17-.1-.35c-.05-.37-.26-.55-.64-.55-.15,0-.25.05-.3.14s-.08.26-.08.52c0,.15.01.35.03.59s.04.4.07.48c.03.1.11.17.24.2s.36.06.68.06c.49,0,.86-.06,1.1-.19s.45-.35.61-.68c.09-.19.17-.32.25-.38s.17-.1.29-.1c.14,0,.25.06.34.18s.13.27.13.45c0,.2-.05.44-.15.73s-.22.55-.37.78c-.07.11-.14.18-.19.22s-.11.06-.19.06c-.06,0-.15,0-.27-.03-.21-.04-.49-.06-.83-.07H.57c-.17,0-.29-.04-.39-.11s-.14-.18-.14-.31c0-.09.02-.16.06-.21s.13-.1.27-.16c.1-.04.17-.09.22-.16s.08-.15.11-.27c.11-.49.16-1.15.16-1.99,0-1.26-.08-2.05-.23-2.38-.03-.06-.07-.11-.11-.14s-.12-.06-.24-.09c-.19-.06-.28-.18-.28-.37,0-.1.03-.2.09-.28s.14-.14.24-.16c.13-.03.37-.04.74-.04Z"/>
      <path class="cls-1" d="M9.02,6.86h-.35c-.21,0-.43,0-.69.03-.16.01-.27.02-.33.02-.22,0-.4-.05-.53-.15s-.21-.23-.21-.4c0-.11.03-.2.09-.27s.16-.11.3-.15c.13-.03.22-.09.26-.16s.08-.22.11-.43c.03-.24.05-.72.07-1.43s.03-1.41.03-2.1c0-.27-.02-.46-.06-.55s-.14-.16-.3-.22c-.22-.08-.34-.23-.34-.43,0-.16.08-.28.23-.37s.37-.13.65-.13c.09,0,.2,0,.32,0,.27,0,.47.01.6.01.47,0,.99-.01,1.58-.04.12,0,.28,0,.46,0,.75,0,1.33.08,1.77.25.64.25,1.13.68,1.46,1.28.29.53.43,1.16.43,1.88,0,.37-.05.74-.16,1.11s-.25.69-.43.96c-.38.55-.9.93-1.56,1.15-.39.13-.81.2-1.25.2l-.59-.02h-.51c-.39-.03-.74-.03-1.04-.03ZM10.04,1.56v3.78c0,.21.04.35.13.44s.23.13.44.13c.95,0,1.43-.72,1.43-2.17,0-.8-.11-1.42-.33-1.86-.24-.48-.66-.73-1.24-.73-.16,0-.27.03-.33.09s-.1.17-.1.31Z"/>
      <path class="cls-1" d="M16.01.19h2.51c.51,0,.88-.01,1.11-.03s.46-.06.68-.13c.07-.02.12-.03.16-.03.17,0,.32.09.45.27.21.3.32.65.32,1.07,0,.21-.04.38-.13.5s-.21.18-.37.18c-.11,0-.19-.02-.25-.07s-.14-.14-.24-.3c-.14-.22-.32-.36-.54-.44s-.58-.11-1.08-.11c-.37,0-.6.07-.68.2-.04.07-.07.17-.08.29s-.01.43-.01.92c0,.2.03.32.1.36s.24.07.51.07c.14,0,.24-.03.3-.09s.1-.16.12-.31c.02-.19.05-.32.07-.39s.07-.13.13-.18c.07-.06.15-.09.24-.09.13,0,.25.06.34.19.07.09.13.26.17.5s.07.49.07.75c0,.51-.08.94-.24,1.26-.09.18-.22.27-.4.27-.11,0-.19-.03-.23-.09s-.07-.17-.1-.35c-.05-.37-.26-.55-.64-.55-.15,0-.25.05-.3.14s-.08.26-.08.52c0,.15.01.35.03.59s.04.4.07.48c.03.1.11.17.24.2s.36.06.68.06c.49,0,.86-.06,1.1-.19s.45-.35.61-.68c.09-.19.17-.32.25-.38s.17-.1.29-.1c.14,0,.25.06.34.18s.13.27.13.45c0,.2-.05.44-.15.73s-.22.55-.37.78c-.07.11-.14.18-.19.22s-.11.06-.19.06c-.06,0-.15,0-.27-.03-.21-.04-.49-.06-.83-.07h-4.14c-.17,0-.29-.04-.39-.11s-.14-.18-.14-.31c0-.09.02-.16.06-.21s.13-.1.27-.16c.1-.04.17-.09.22-.16s.08-.15.11-.27c.11-.49.16-1.15.16-1.99,0-1.26-.08-2.05-.23-2.38-.03-.06-.07-.11-.11-.14s-.12-.06-.24-.09c-.19-.06-.28-.18-.28-.37,0-.1.03-.2.09-.28s.14-.14.24-.16c.13-.03.37-.04.74-.04Z"/>
      <path class="cls-1" d="M25.04,2.32v2.24c0,.5.04.83.13.98.11.17.33.26.68.26.37,0,.66-.08.88-.24s.36-.42.45-.76c.05-.21.16-.32.33-.32s.31.08.42.23.16.36.16.6c0,.4-.15.83-.45,1.29-.09.15-.18.25-.25.3s-.16.08-.26.08l-1.08-.13h-3.41c-.22,0-.38-.03-.47-.08-.13-.07-.2-.19-.2-.34,0-.09.02-.16.07-.2s.15-.11.32-.19c.19-.09.3-.21.36-.37.04-.13.06-.52.06-1.17,0-.3,0-.73-.02-1.29-.02-.54-.03-.95-.03-1.22,0-.26-.02-.44-.06-.53s-.13-.17-.26-.21c-.21-.07-.35-.14-.41-.18-.1-.08-.16-.17-.16-.28,0-.24.2-.42.59-.54.34-.11.78-.16,1.35-.16.63,0,1.1.03,1.42.1.4.09.61.26.61.53,0,.11-.03.19-.08.24s-.18.12-.39.21c-.12.06-.2.15-.23.28s-.05.42-.05.87Z"/>
      <path class="cls-1" d="M35.07,1.92l-.14-.34c-.09-.2-.2-.33-.33-.4-.23-.12-.35-.28-.35-.47,0-.42.62-.62,1.88-.62.62,0,1.1.05,1.43.15.11.04.2.09.27.17s.1.16.1.26c0,.08-.02.14-.05.19s-.12.13-.26.25c-.08.07-.12.14-.12.21,0,.11.06.3.19.57l.28.6c.13.27.22.44.27.52s.11.11.18.11c.07,0,.14-.04.19-.13s.12-.25.21-.5l.23-.68c.06-.2.1-.34.1-.44,0-.13-.07-.22-.21-.26-.27-.09-.41-.24-.41-.47,0-.2.11-.34.32-.42s.56-.13,1.04-.13c.32,0,.56.04.74.11.24.1.37.25.37.47,0,.09-.02.18-.07.24s-.13.16-.27.27c-.09.07-.16.15-.2.24s-.12.26-.22.52l-.85,2.27c-.43,1.06-.68,1.69-.77,1.89s-.18.38-.27.54c-.07.12-.15.2-.24.25s-.21.07-.35.07c-.2,0-.35-.04-.47-.13s-.22-.22-.3-.42l-.97-2.29c-.05-.13-.09-.21-.12-.24s-.06-.05-.11-.05c-.07,0-.13.04-.18.12s-.14.29-.28.63l-.66,1.65c-.12.3-.24.5-.35.59s-.28.14-.51.14c-.21,0-.37-.05-.49-.15s-.23-.27-.32-.52l-1.8-4.59c-.07-.19-.13-.3-.15-.33s-.11-.09-.26-.17c-.17-.08-.25-.23-.25-.43,0-.46.57-.69,1.71-.69.58,0,1,.04,1.26.12.25.08.38.24.38.48,0,.07,0,.13-.02.16s-.06.11-.14.23c-.04.06-.06.14-.06.23,0,.16.11.5.33,1.02l.2.47c.08.2.14.31.17.35.03.04.07.06.12.06.13,0,.26-.18.39-.54l.2-.56s.02-.07.02-.09c0-.03,0-.06-.02-.1Z"/>
      <path class="cls-1" d="M42.14.19h2.51c.51,0,.88-.01,1.11-.03s.46-.06.68-.13c.07-.02.12-.03.16-.03.17,0,.32.09.45.27.21.3.32.65.32,1.07,0,.21-.04.38-.13.5s-.21.18-.37.18c-.11,0-.19-.02-.25-.07s-.14-.14-.24-.3c-.14-.22-.32-.36-.54-.44s-.58-.11-1.08-.11c-.37,0-.6.07-.68.2-.04.07-.07.17-.08.29s-.01.43-.01.92c0,.2.03.32.1.36s.24.07.51.07c.14,0,.24-.03.3-.09s.1-.16.12-.31c.02-.19.05-.32.07-.39s.07-.13.13-.18c.07-.06.15-.09.24-.09.13,0,.25.06.34.19.07.09.13.26.17.5s.07.49.07.75c0,.51-.08.94-.24,1.26-.09.18-.22.27-.4.27-.11,0-.19-.03-.23-.09s-.07-.17-.1-.35c-.05-.37-.26-.55-.64-.55-.15,0-.25.05-.3.14s-.08.26-.08.52c0,.15.01.35.03.59s.04.4.07.48c.03.1.11.17.24.2s.36.06.68.06c.49,0,.86-.06,1.1-.19s.45-.35.61-.68c.09-.19.17-.32.25-.38s.17-.1.29-.1c.14,0,.25.06.34.18s.13.27.13.45c0,.2-.05.44-.15.73s-.22.55-.37.78c-.07.11-.14.18-.19.22s-.11.06-.19.06c-.06,0-.15,0-.27-.03-.21-.04-.49-.06-.83-.07h-4.14c-.17,0-.29-.04-.39-.11s-.14-.18-.14-.31c0-.09.02-.16.06-.21s.13-.1.27-.16c.1-.04.17-.09.22-.16s.08-.15.11-.27c.11-.49.16-1.15.16-1.99,0-1.26-.08-2.05-.23-2.38-.03-.06-.07-.11-.11-.14s-.12-.06-.24-.09c-.19-.06-.28-.18-.28-.37,0-.1.03-.2.09-.28s.14-.14.24-.16c.13-.03.37-.04.74-.04Z"/>
      <path class="cls-1" d="M50.13.09c.37,0,.72.03,1.05.1.44.09.66.27.66.56,0,.09-.02.17-.07.21s-.16.12-.33.21c-.15.07-.25.24-.3.49s-.07.75-.07,1.48c0,1.24.03,2.01.09,2.31.02.09.06.17.1.22s.13.1.25.16c.21.1.32.24.32.42,0,.26-.2.44-.6.54-.43.1-.96.16-1.58.16-1.06,0-1.59-.2-1.59-.61,0-.15.1-.28.31-.41.16-.1.25-.23.28-.4.06-.37.09-1.16.09-2.36,0-.83-.04-1.37-.13-1.6-.05-.13-.15-.25-.33-.36-.13-.09-.22-.16-.27-.22s-.07-.13-.07-.22c0-.14.07-.25.2-.33s.37-.16.72-.22c.41-.08.82-.12,1.24-.12Z"/>
      <path class="cls-1" d="M54.86.42l2.43,2.13c.23.2.39.3.49.3.17,0,.25-.18.25-.54,0-.41-.02-.69-.07-.84s-.15-.26-.31-.34c-.13-.06-.22-.13-.27-.2s-.08-.16-.08-.27c0-.27.19-.45.56-.53.15-.03.42-.05.8-.05.49,0,.83.03,1.02.09.3.09.45.26.45.52,0,.21-.12.37-.37.48-.1.04-.16.08-.2.11s-.07.08-.09.15c-.09.21-.13.62-.14,1.22v1.59c0,.24,0,.58,0,1,0,.57-.03.99-.1,1.24-.09.32-.25.47-.48.47-.1,0-.19-.02-.26-.06s-.19-.14-.36-.29l-2.9-2.59c-.2-.18-.37-.27-.5-.27-.2,0-.3.27-.3.83,0,.45.03.76.08.93s.15.29.31.37c.22.11.33.25.33.42,0,.45-.49.68-1.46.68-.44,0-.78-.06-1.02-.17s-.36-.28-.36-.49c0-.11.02-.19.07-.25s.15-.13.31-.22c.15-.09.25-.25.28-.48.06-.42.08-1.02.08-1.81,0-.84-.05-1.45-.15-1.84-.04-.14-.08-.24-.14-.31s-.15-.13-.27-.2c-.15-.07-.25-.14-.31-.21s-.09-.15-.09-.25c0-.31.27-.51.81-.59.18-.03.5-.04.96-.04.26,0,.45.02.57.06s.26.13.42.28Z"/>
      <path class="cls-1" d="M64.92,1.99c.16,0,.43.04.8.11.07.01.14.02.19.02.06,0,.16-.03.32-.09.07-.03.14-.04.19-.04.15,0,.3.1.45.29.12.15.22.32.3.5s.12.34.12.47-.05.24-.14.32-.21.13-.34.13c-.11,0-.22-.03-.31-.08s-.23-.18-.43-.37c-.21-.2-.38-.3-.52-.3-.09,0-.17.03-.24.1s-.1.15-.1.24c0,.16.15.31.46.45.55.25.97.52,1.26.81.25.25.37.55.37.91,0,.45-.2.83-.6,1.13-.34.26-.76.4-1.25.4-.13,0-.36-.02-.69-.06-.32-.04-.49-.05-.53-.05-.04,0-.09,0-.15.01-.09.01-.16.02-.21.02-.15,0-.27-.04-.36-.12-.13-.12-.26-.31-.37-.57s-.17-.48-.17-.67c0-.3.12-.45.35-.45.09,0,.17.03.25.09s.24.22.48.48c.13.14.24.24.33.3s.18.08.28.08c.11,0,.19-.03.26-.09s.1-.13.1-.23c0-.15-.13-.28-.38-.4-.52-.26-.9-.52-1.14-.8s-.35-.59-.35-.95c0-.39.12-.72.36-1,.34-.4.8-.6,1.39-.6Z"/>
      <path class="cls-1" d="M70.41,2.27v2.65c0,.57.19.85.56.85.09,0,.19-.03.28-.08s.15-.12.19-.2c.07-.16.11-.5.11-1.04s-.02-.9-.05-1.09c-.01-.08-.04-.14-.07-.18s-.09-.08-.19-.13c-.19-.1-.28-.22-.28-.37,0-.2.16-.34.48-.42.61-.15,1.2-.22,1.79-.22.33,0,.49.17.49.52,0,.04,0,.11,0,.22,0,.16-.01.35-.01.57v2.15c0,.11.09.21.28.3.16.08.24.19.24.34,0,.29-.35.52-1.04.68-.41.09-.8.14-1.18.14-.16,0-.26-.02-.32-.05s-.09-.11-.1-.21c-.02-.2-.08-.3-.19-.3-.04,0-.07,0-.11.03s-.13.08-.3.2c-.33.22-.68.34-1.06.34-.62,0-1.07-.18-1.32-.54-.22-.3-.33-.81-.33-1.53,0-.27,0-.49,0-.68v-.22c0-.28-.03-.49-.08-.62s-.14-.24-.28-.31c-.13-.06-.21-.12-.24-.16s-.05-.09-.05-.16c0-.25.19-.41.56-.49.64-.14,1.28-.21,1.91-.21.19,0,.29.08.29.24Z"/>
      <path class="cls-1" d="M76.9,2.02c.2,0,.32.02.37.05s.07.12.07.26c0,.12.04.18.12.18.03,0,.14-.06.33-.19.14-.09.32-.17.53-.24s.41-.1.59-.1c.41,0,.78.14,1.11.43.25.22.44.49.58.83.14.35.21.71.21,1.1,0,.82-.28,1.5-.83,2.03-.43.41-.91.62-1.46.62-.28,0-.56-.06-.85-.2-.06-.03-.11-.04-.14-.04-.1,0-.15.1-.15.29,0,.26.09.44.26.56.16.11.25.18.29.22s.05.1.05.19c0,.2-.11.35-.33.45s-.53.16-.92.16c-.71,0-1.32-.14-1.86-.42-.27-.14-.41-.32-.41-.53,0-.1.02-.17.06-.22s.12-.1.24-.16c.17-.08.27-.22.31-.42s.07-.79.09-1.77c-.02-.8-.05-1.25-.09-1.35-.01-.03-.03-.05-.06-.06s-.1-.03-.24-.05c-.1-.02-.19-.07-.25-.14s-.1-.17-.1-.28c0-.13.05-.25.14-.34s.24-.2.44-.29c.8-.36,1.43-.55,1.9-.55ZM77.38,3.86l-.07,1.34c0,.06,0,.11,0,.16,0,.1.04.18.13.24s.21.09.35.09c.45,0,.67-.37.67-1.11,0-.48-.09-.82-.28-1.01-.12-.12-.26-.18-.42-.18-.23,0-.36.15-.38.46Z"/>
      <path class="cls-1" d="M83.55,2.02c.2,0,.32.02.37.05s.07.12.07.26c0,.12.04.18.12.18.03,0,.14-.06.33-.19.14-.09.32-.17.53-.24s.41-.1.59-.1c.41,0,.78.14,1.11.43.25.22.44.49.58.83.14.35.21.71.21,1.1,0,.82-.28,1.5-.83,2.03-.43.41-.91.62-1.46.62-.28,0-.56-.06-.85-.2-.06-.03-.11-.04-.14-.04-.1,0-.15.1-.15.29,0,.26.09.44.26.56.16.11.25.18.29.22s.05.1.05.19c0,.2-.11.35-.33.45s-.53.16-.92.16c-.71,0-1.32-.14-1.86-.42-.27-.14-.41-.32-.41-.53,0-.1.02-.17.06-.22s.12-.1.24-.16c.17-.08.27-.22.31-.42s.07-.79.09-1.77c-.02-.8-.05-1.25-.09-1.35-.01-.03-.03-.05-.06-.06s-.1-.03-.24-.05c-.1-.02-.19-.07-.25-.14s-.1-.17-.1-.28c0-.13.05-.25.14-.34s.24-.2.44-.29c.8-.36,1.43-.55,1.9-.55ZM84.04,3.86l-.07,1.34c0,.06,0,.11,0,.16,0,.1.04.18.13.24s.21.09.35.09c.45,0,.67-.37.67-1.11,0-.48-.09-.82-.28-1.01-.12-.12-.26-.18-.42-.18-.23,0-.36.15-.38.46Z"/>
      <path class="cls-1" d="M90.84,1.99c.6,0,1.12.15,1.57.46.32.22.58.51.78.86.2.37.3.76.3,1.16,0,.71-.32,1.31-.97,1.8-.62.47-1.33.71-2.12.71s-1.41-.22-1.89-.66c-.47-.43-.7-.99-.7-1.68,0-.77.29-1.4.86-1.88.6-.51,1.33-.77,2.18-.77ZM90.45,3.12c-.14,0-.26.05-.34.16s-.13.25-.13.42c0,.2.04.46.11.8s.16.64.26.9c.1.27.27.4.49.4.29,0,.43-.18.43-.55,0-.27-.04-.58-.11-.93s-.16-.63-.27-.85c-.11-.22-.26-.34-.45-.34Z"/>
      <path class="cls-1" d="M96.12,2.02c.17,0,.28.02.31.07s.07.21.1.47c.02.14.07.21.15.21.06,0,.13-.05.19-.14.26-.41.6-.61,1.02-.61.3,0,.54.1.73.29.09.09.17.22.22.36s.09.29.09.43c0,.15-.04.31-.11.47s-.16.29-.28.4c-.21.2-.46.3-.77.3-.17,0-.31-.03-.42-.09s-.26-.18-.44-.36c-.07-.07-.13-.1-.19-.1-.09,0-.15.05-.18.15s-.04.32-.04.65c0,.49.02.83.05,1.01.02.1.05.17.1.2s.13.08.26.11c.29.09.44.24.44.46,0,.13-.05.25-.14.35s-.22.17-.38.2c-.31.06-.77.1-1.38.1s-1.01-.05-1.31-.15c-.27-.09-.4-.25-.4-.47,0-.17.1-.32.29-.45.09-.06.16-.12.2-.17s.06-.12.07-.21c.05-.3.08-.84.08-1.65,0-.15-.02-.25-.05-.31s-.1-.11-.2-.15c-.23-.09-.35-.22-.35-.4,0-.16.08-.29.24-.4s.43-.22.8-.33c.5-.15.93-.23,1.28-.23Z"/>
      <path class="cls-1" d="M102.23,3.27v1.65c0,.2.05.35.14.48s.22.19.37.19c.13,0,.29-.06.5-.18.05-.03.1-.04.15-.04.08,0,.15.05.21.14s.1.2.1.31c0,.2-.11.4-.33.58-.46.39-1.02.59-1.68.59-.52,0-.94-.15-1.25-.44s-.47-.68-.47-1.16v-2.26c0-.07,0-.12-.03-.14s-.06-.03-.14-.03h-.5c-.09,0-.15-.02-.18-.05s-.04-.1-.04-.22v-.21c0-.1.04-.17.11-.21l2.24-1.41c.06-.03.12-.04.21-.04h.4c.08,0,.14.02.16.06s.04.11.04.22v.66c0,.1.02.16.05.19s.1.04.2.04h.9c.12,0,.2.02.23.07s.05.14.05.28v.29c0,.16-.02.26-.07.32s-.13.09-.25.09h-.88c-.09,0-.15.02-.19.05s-.05.09-.05.19Z"/>
    </g>
  </g>
</svg>